<svg width="160" height="160" viewBox="0 0 160 160" fill="none" xmlns="http://www.w3.org/2000/svg">
<g clip-path="url(#clip0_96_3)">
<rect width="160" height="160" fill="#523CB5"/>
<g opacity="0.03">
<path d="M299.348 -148.636L275.261 -134.73V-140.91L293.995 -151.726L299.348 -148.636Z" fill="black"/>
<path fill-rule="evenodd" clip-rule="evenodd" d="M315.405 -139.365L334.139 -128.549V-122.369L310.053 -136.275L315.405 -139.365Z" fill="black"/>
<path d="M112.005 -256.751L87.9189 -242.844V-249.025L106.653 -259.841L112.005 -256.751Z" fill="black"/>
<path fill-rule="evenodd" clip-rule="evenodd" d="M128.063 -247.48L146.797 -236.664V-230.483L122.711 -244.389L128.063 -247.48Z" fill="black"/>
<path d="M-75.1785 -148.596L-99.2649 -134.69V-140.87L-80.531 -151.686L-75.1785 -148.596Z" fill="black"/>
<path fill-rule="evenodd" clip-rule="evenodd" d="M355.637 32.0348V59.8474L360.989 56.757V35.1252L355.637 32.0348Z" fill="black"/>
<path fill-rule="evenodd" clip-rule="evenodd" d="M355.641 248.268V276.081L360.993 272.99V251.358L355.641 248.268Z" fill="black"/>
<path fill-rule="evenodd" clip-rule="evenodd" d="M168.36 356.478V384.291L173.712 381.2V359.568L168.36 356.478Z" fill="black"/>
<path fill-rule="evenodd" clip-rule="evenodd" d="M-8.40805 -224.29L-13.7606 -221.2V-199.568L-8.40805 -196.477V-224.29Z" fill="black"/>
<path fill-rule="evenodd" clip-rule="evenodd" d="M-195.533 100.134L-200.886 103.224V124.856L-195.533 127.946V100.134Z" fill="black"/>
<path d="M-155.448 -133.132L-179.534 -119.226V-125.406L-160.8 -136.222L-155.448 -133.132Z" fill="black"/>
<path fill-rule="evenodd" clip-rule="evenodd" d="M-195.592 -116.135L-200.944 -113.045V-91.4133L-195.592 -88.3229V-116.135Z" fill="black"/>
<path fill-rule="evenodd" clip-rule="evenodd" d="M-40.4109 328.705V334.886L-21.6771 345.702L-16.3246 342.611L-40.4109 328.705Z" fill="black"/>
<path fill-rule="evenodd" clip-rule="evenodd" d="M-227.667 220.645L-227.667 226.825L-208.933 237.641L-203.58 234.551L-227.667 220.645Z" fill="black"/>
<path fill-rule="evenodd" clip-rule="evenodd" d="M-222.314 177.381L-227.667 180.471L-227.667 202.103L-222.314 205.193L-222.314 177.381Z" fill="black"/>
<path fill-rule="evenodd" clip-rule="evenodd" d="M-227.725 4.37555L-227.725 10.556L-208.992 21.3721L-203.639 18.2818L-227.725 4.37555Z" fill="black"/>
<path fill-rule="evenodd" clip-rule="evenodd" d="M-222.373 -38.8885L-227.725 -35.7983L-227.725 -14.1664L-222.373 -11.076L-222.373 -38.8885Z" fill="black"/>
<path fill-rule="evenodd" clip-rule="evenodd" d="M368.988 -77.668L387.721 -66.852V-60.6715L363.635 -74.5778L368.988 -77.668Z" fill="black"/>
<path fill-rule="evenodd" clip-rule="evenodd" d="M382.369 -45.22V-17.4073L387.721 -20.4977V-42.1296L382.369 -45.22Z" fill="black"/>
<path fill-rule="evenodd" clip-rule="evenodd" d="M181.58 -185.709L200.313 -174.893V-168.712L176.227 -182.619L181.58 -185.709Z" fill="black"/>
<path fill-rule="evenodd" clip-rule="evenodd" d="M368.991 138.565L387.725 149.381V155.562L363.639 141.655L368.991 138.565Z" fill="black"/>
<path fill-rule="evenodd" clip-rule="evenodd" d="M382.373 171.013V198.826L387.725 195.735V174.104L382.373 171.013Z" fill="black"/>
<path fill-rule="evenodd" clip-rule="evenodd" d="M13.1548 390.484V396.664L31.8887 407.48L37.2411 404.39L13.1548 390.484Z" fill="black"/>
<path fill-rule="evenodd" clip-rule="evenodd" d="M-174.101 282.423V288.604L-155.367 299.42L-150.015 296.33L-174.101 282.423Z" fill="black"/>
<path fill-rule="evenodd" clip-rule="evenodd" d="M-13.7606 -174.845L-0.397552 -167.13L-19.1314 -156.314V-150.133L4.95485 -164.04L4.97328 -164.029L10.3257 -167.12L-13.7606 -181.026V-174.845Z" fill="black"/>
<path fill-rule="evenodd" clip-rule="evenodd" d="M61.1749 -199.568V-171.777L61.1601 -171.768V-165.588L90.595 -182.584L66.5275 -196.477L66.5088 -196.49L61.1749 -199.568ZM66.5275 -190.299V-174.867L79.894 -182.584L66.5275 -190.299Z" fill="black"/>
<path fill-rule="evenodd" clip-rule="evenodd" d="M141.444 -215.032V-187.259L141.435 -187.254V-181.073L165.522 -194.98L160.169 -198.07L146.797 -190.349V-211.941L141.444 -215.032Z" fill="black"/>
<path fill-rule="evenodd" clip-rule="evenodd" d="M200.313 -128.555V-150.17L194.961 -153.261V-125.448L195.057 -125.504V-119.34L219.144 -133.246L213.791 -136.336L200.313 -128.555Z" fill="black"/>
<path fill-rule="evenodd" clip-rule="evenodd" d="M253.851 -128.549V-113.1L235.127 -123.91L229.774 -120.82L253.851 -106.919L253.861 -106.914L259.204 -103.827V-131.639L253.851 -128.549Z" fill="black"/>
<path fill-rule="evenodd" clip-rule="evenodd" d="M253.861 -82.1893L267.203 -74.4861L253.861 -66.783V-82.1893ZM272.585 -71.3788L272.555 -71.3959L248.568 -57.5467V-63.684L248.508 -63.6495V-91.4622L253.851 -88.3753L253.861 -88.3718L277.937 -74.469L272.585 -71.3788Z" fill="black"/>
<path fill-rule="evenodd" clip-rule="evenodd" d="M168.229 -48.1934L168.276 -48.2207V-42.0926L192.27 -55.9452L192.307 -55.9239L197.659 -59.0141L173.582 -72.9157L173.573 -72.9203L168.229 -76.0061V-48.1934ZM173.582 -66.7345L186.917 -59.0354L173.582 -51.3361V-66.7345Z" fill="black"/>
<path fill-rule="evenodd" clip-rule="evenodd" d="M114.686 -137.775V-109.962L114.704 -109.973V-103.819L138.79 -117.725L138.777 -117.733L144.112 -120.813L120.025 -134.719V-134.692L114.686 -137.775ZM133.42 -120.805L120.038 -113.079V-128.531L133.42 -120.805Z" fill="black"/>
<path fill-rule="evenodd" clip-rule="evenodd" d="M39.75 -113.053L39.7465 -97.6023L53.1286 -105.328L39.75 -113.053ZM34.4343 -88.3548L63.8362 -105.327L34.3939 -122.321V-94.5081L34.4343 -94.5314V-88.3548Z" fill="black"/>
<path fill-rule="evenodd" clip-rule="evenodd" d="M-40.5416 -143.953L-35.189 -147.043V-119.231L-40.5416 -122.321V-122.418L-64.4733 -136.235L-59.1208 -139.325L-40.5416 -128.598V-143.953Z" fill="black"/>
<path fill-rule="evenodd" clip-rule="evenodd" d="M-40.387 -82.1948L-27.1244 -89.8519L-40.387 -97.5091V-82.1948ZM-21.662 -86.8252L-21.6976 -86.8459L-16.4553 -89.8726L-40.387 -103.69V-103.787L-45.7395 -106.877V-79.1045L-45.7483 -79.0994V-72.9189L-21.662 -86.8252Z" fill="black"/>
<path fill-rule="evenodd" clip-rule="evenodd" d="M13.1296 -35.7589L26.3957 -28.0999L13.1296 -20.4406V-35.7589ZM7.77711 -45.1063V-17.3503L7.74716 -17.3331V-11.1526L31.7481 -25.0096L31.758 -25.0038L37.1105 -28.0941L13.1296 -41.9393V-42.0159L7.77711 -45.1063Z" fill="black"/>
<path fill-rule="evenodd" clip-rule="evenodd" d="M-120.675 -128.509L-115.322 -131.599V-103.787L-120.656 -106.865L-120.675 -106.877L-144.743 -120.771L-139.39 -123.861L-120.675 -113.056V-128.509Z" fill="black"/>
<path fill-rule="evenodd" clip-rule="evenodd" d="M-126.009 -91.4132V-63.6221L-126.024 -63.6136V-57.4331L-96.5887 -74.4291L-120.656 -88.3228L-120.675 -88.3353L-126.009 -91.4132ZM-120.656 -82.1441L-107.29 -74.4296L-120.656 -66.7123V-82.1441Z" fill="black"/>
<path fill-rule="evenodd" clip-rule="evenodd" d="M-67.1457 -20.3766L-53.7639 -12.6507L-67.1457 -4.9245V-20.3766ZM-72.4983 -1.80771L-72.4801 -1.81815V4.33582L-48.3938 -9.57045L-48.4069 -9.57817L-43.0721 -12.6581L-67.1584 -26.5643V-26.5373L-72.4983 -29.6204V-1.80771Z" fill="black"/>
<path fill-rule="evenodd" clip-rule="evenodd" d="M-147.434 -4.8981L-147.437 10.5522L-134.055 2.82596L-147.434 -4.8981ZM-152.75 19.7997L-123.347 2.82764L-152.79 -14.1663V13.6465L-152.75 13.6231V19.7997Z" fill="black"/>
<path fill-rule="evenodd" clip-rule="evenodd" d="M-200.944 -66.6909L-187.581 -58.9754L-206.315 -48.1594V-41.9789L-182.229 -55.8852L-182.211 -55.8749L-176.858 -58.9651L-200.944 -72.8714V-66.6909Z" fill="black"/>
<path fill-rule="evenodd" clip-rule="evenodd" d="M-174.16 66.1542V72.3347L-160.772 80.0642L-179.476 90.8629V97.0434L-155.389 83.1371L-155.396 83.1333L-150.073 80.0605L-174.16 66.1542Z" fill="black"/>
<path fill-rule="evenodd" clip-rule="evenodd" d="M-93.8903 50.6904L-99.2242 47.6124V75.4251L-99.2063 75.4147V81.5795L-75.12 67.6732L-75.1264 67.6695L-69.804 64.5965L-93.8717 50.7028L-93.8903 50.6904ZM-80.5024 64.6002L-93.8717 72.319V56.8815L-80.5024 64.6002Z" fill="black"/>
<path fill-rule="evenodd" clip-rule="evenodd" d="M-125.95 152.647V124.856L-120.616 127.934L-120.598 127.946L-96.5302 141.84L-125.965 158.836V152.656L-125.95 152.647ZM-120.598 149.557V134.125L-107.231 141.84L-120.598 149.557Z" fill="black"/>
<path fill-rule="evenodd" clip-rule="evenodd" d="M-45.681 109.392V137.165L-45.6897 137.17V143.35L-21.6034 129.444L-21.6556 129.414L-16.3577 126.355L-40.3284 112.516V112.483L-45.681 109.392ZM-40.3284 118.696L-27.0103 126.385L-40.3284 134.074V118.696Z" fill="black"/>
<path fill-rule="evenodd" clip-rule="evenodd" d="M-200.886 149.578L-187.523 157.294L-206.257 168.11V174.29L-182.17 160.384L-182.152 160.394L-176.8 157.304L-200.886 143.398V149.578Z" fill="black"/>
<path fill-rule="evenodd" clip-rule="evenodd" d="M-72.4397 214.462L-72.4216 214.451V220.605L-48.3353 206.699L-48.3485 206.691L-43.0136 203.611L-67.0999 189.705V189.732L-72.4397 186.649V214.462ZM-67.0872 195.893L-53.7052 203.619L-67.0872 211.345V195.893Z" fill="black"/>
<path fill-rule="evenodd" clip-rule="evenodd" d="M-147.379 226.821L-147.375 211.371L-133.997 219.095L-147.379 226.821ZM-123.289 219.097L-152.731 202.103V229.916L-152.691 229.892V236.069L-123.289 219.097Z" fill="black"/>
<path fill-rule="evenodd" clip-rule="evenodd" d="M-99.1656 263.882V291.694L-93.813 288.604V273.151L-75.0978 283.956L-69.7454 280.866L-93.813 266.972L-93.8317 266.959L-99.1656 263.882Z" fill="black"/>
<path fill-rule="evenodd" clip-rule="evenodd" d="M7.83563 171.163V198.891L7.78023 198.923V205.104L31.8382 191.214L31.8557 191.224L37.2081 188.134L13.1882 174.266V174.253L7.83563 171.163ZM13.1882 180.446L26.4856 188.124L13.1882 195.801V180.446Z" fill="black"/>
<path fill-rule="evenodd" clip-rule="evenodd" d="M-18.8962 248.418L10.4564 265.364L5.10396 268.455L5.08554 268.444L-19.0007 282.351V276.17L-18.8962 276.11V248.418ZM-13.5437 257.688L-0.266876 265.354L-13.5437 273.019V257.688Z" fill="black"/>
<path fill-rule="evenodd" clip-rule="evenodd" d="M34.5246 310.163V337.976L34.565 337.953V344.129L58.6118 330.246L58.6513 330.223L63.9669 327.157L34.5246 310.163ZM39.8807 319.432L53.2593 327.156L39.8771 334.882L39.8807 319.432Z" fill="black"/>
<path fill-rule="evenodd" clip-rule="evenodd" d="M88.0903 399.755V371.942L93.4243 375.02L93.4429 375.032L117.511 388.926L112.158 392.016L93.4429 381.211V396.664L88.0903 399.755Z" fill="black"/>
<path fill-rule="evenodd" clip-rule="evenodd" d="M114.816 322.522L114.834 322.511V328.665L138.921 314.759L138.907 314.751L144.242 311.671L120.156 297.765V297.792L114.816 294.709V322.522ZM120.169 303.953L133.551 311.679L120.169 319.405V303.953Z" fill="black"/>
<path fill-rule="evenodd" clip-rule="evenodd" d="M66.6394 235.994L61.3056 232.916V260.707L61.2909 260.716V266.896L90.7257 249.901L66.6581 236.007L66.6394 235.994ZM80.0222 249.901L66.6581 257.617V242.186L80.0222 249.901Z" fill="black"/>
<path fill-rule="evenodd" clip-rule="evenodd" d="M141.575 217.452V245.225L141.566 245.23V251.411L165.653 237.504L165.617 237.484L170.957 234.401L146.87 220.495V220.51L141.575 217.452ZM160.287 234.422L146.927 242.135V226.709L160.287 234.422Z" fill="black"/>
<path fill-rule="evenodd" clip-rule="evenodd" d="M88.0573 155.686V183.455L88.0496 183.459V189.64L112.108 175.75L112.125 175.76L117.478 172.67L93.4098 158.776L93.3913 158.764L88.0573 155.686ZM93.4098 164.955L106.755 172.66L93.4098 180.365V164.955Z" fill="black"/>
<path fill-rule="evenodd" clip-rule="evenodd" d="M34.4915 93.907V121.72L34.5319 121.696V127.873L63.9339 110.901L34.4915 93.907ZM53.2262 110.899L39.8441 118.625L39.8476 103.175L53.2262 110.899Z" fill="black"/>
<path fill-rule="evenodd" clip-rule="evenodd" d="M-18.9547 32.1485V59.8682L-19.0338 59.9138V66.0943L5.05249 52.1881L5.07089 52.1984L10.4233 49.1082L-13.6022 35.2389L-13.663 35.202L-18.9547 32.1485ZM-0.299942 49.0978L-13.6022 56.7779V41.4174L-0.299942 49.0978Z" fill="black"/>
<path fill-rule="evenodd" clip-rule="evenodd" d="M168.327 167.933V140.222L173.651 143.296V143.248L197.737 157.154L192.385 160.245L192.367 160.234L168.28 174.141V167.96L168.327 167.933ZM173.679 164.843V149.445L187.014 157.144L173.679 164.843Z" fill="black"/>
<path fill-rule="evenodd" clip-rule="evenodd" d="M114.783 106.266L114.801 106.255V112.409L138.888 98.5028L138.875 98.4952L144.209 95.4152L120.123 81.5088V81.5359L114.783 78.4529V106.266ZM120.136 87.6966L133.518 95.4227L120.136 103.149V87.6966Z" fill="black"/>
<path fill-rule="evenodd" clip-rule="evenodd" d="M61.2725 44.4512V16.6601L66.6064 19.738L66.6251 19.7505L90.6927 33.6443L61.2578 50.6402V44.4597L61.2725 44.4512ZM66.6251 41.3608V25.9293L79.9916 33.6436L66.6251 41.3608Z" fill="black"/>
<path fill-rule="evenodd" clip-rule="evenodd" d="M87.9597 -32.7294V-60.5421L93.2937 -57.4643L93.3122 -57.4518L117.38 -43.558L112.028 -40.4678L112.018 -40.4735L88.0165 -26.6165V-32.7623L87.9597 -32.7294ZM106.665 -43.5638L93.3122 -35.8545V-51.2731L106.665 -43.5638Z" fill="black"/>
<path fill-rule="evenodd" clip-rule="evenodd" d="M141.542 1.19617L146.866 4.27036V4.26184L170.953 18.1683L165.619 21.248L165.6 21.2585L141.533 35.1543V28.9738L141.542 28.9687V1.19617ZM160.248 18.1685L146.894 25.8784V10.4586L160.248 18.1685Z" fill="black"/>
<path fill-rule="evenodd" clip-rule="evenodd" d="M227.158 -5.01178L227.154 10.4385L240.536 2.7124L227.158 -5.01178ZM221.842 19.6861L251.244 2.71399L221.802 -14.2799V13.5327L221.842 13.5095V19.6861Z" fill="black"/>
<path fill-rule="evenodd" clip-rule="evenodd" d="M66.5088 -236.664L71.8613 -239.754V-211.941L66.5275 -215.019L66.5088 -215.032L42.4412 -228.925L47.7936 -232.016L66.5088 -221.211V-236.664Z" fill="black"/>
<path fill-rule="evenodd" clip-rule="evenodd" d="M328.786 -106.917V-79.1044L328.843 -79.1372V-73.0326L352.93 -86.9389L347.577 -90.0291L334.139 -82.2707V-103.827L328.786 -106.917Z" fill="black"/>
<path fill-rule="evenodd" clip-rule="evenodd" d="M302.093 -29.7341L307.433 -26.651V-26.6781L331.52 -12.7719L326.185 -9.69188L326.198 -9.68416L302.112 4.22214V-1.93185L302.093 -1.92142V-29.7341ZM307.446 -5.03818V-20.4903L320.828 -12.7642L307.446 -5.03818Z" fill="black"/>
<path fill-rule="evenodd" clip-rule="evenodd" d="M275.368 75.2279V47.4987L280.701 50.5767L280.72 50.5891L304.788 64.4828L299.435 67.5731L299.383 67.543L275.331 81.4297V75.2492L275.368 75.2279ZM294.031 64.4528L280.72 72.1377V56.7679L294.031 64.4528Z" fill="black"/>
<path fill-rule="evenodd" clip-rule="evenodd" d="M195.058 62.967L195.061 96.8936L219.166 83.0372L224.518 79.9469L195.058 62.967ZM200.411 72.2452L213.752 79.9219L200.411 87.6245V72.2452Z" fill="black"/>
<path fill-rule="evenodd" clip-rule="evenodd" d="M248.587 124.706L253.921 127.784L253.939 127.797L278.007 141.691L248.572 158.686V152.506L248.587 152.497V124.706ZM253.939 133.975L267.303 141.691L253.939 149.407V133.975Z" fill="black"/>
<path fill-rule="evenodd" clip-rule="evenodd" d="M328.856 109.242V137.015L328.847 137.02V143.2L352.933 129.294L347.581 126.204L334.208 133.925V112.333L328.856 109.242Z" fill="black"/>
<path fill-rule="evenodd" clip-rule="evenodd" d="M320.832 203.469L307.45 211.195V195.743L320.832 203.469ZM307.437 189.582L302.097 186.499V214.312L302.115 214.301V220.455L326.202 206.549L326.188 206.541L331.523 203.461L307.437 189.555V189.582Z" fill="black"/>
<path fill-rule="evenodd" clip-rule="evenodd" d="M275.371 263.732L280.705 266.81L280.724 266.822L304.792 280.716L299.439 283.806L280.724 273.001V288.454L275.371 291.545V263.732Z" fill="black"/>
<path fill-rule="evenodd" clip-rule="evenodd" d="M251.248 219.483L221.806 202.489V230.301L221.846 230.278V236.454L251.248 219.483ZM240.54 219.481L227.158 227.211L227.162 211.757L240.54 219.481Z" fill="black"/>
<path fill-rule="evenodd" clip-rule="evenodd" d="M195.092 307.571V279.758L200.436 282.844V282.809L224.522 296.715L219.17 299.805L200.444 288.994V304.481L195.092 307.571Z" fill="black"/>
<path fill-rule="evenodd" clip-rule="evenodd" d="M7.64955 -227.38L31.7359 -241.287L26.3834 -244.377L7.64955 -233.561V-227.38Z" fill="black"/>
<path fill-rule="evenodd" clip-rule="evenodd" d="M-0.266739 358.063L13.1548 350.31V371.942L18.5074 375.032V347.22L23.8599 344.129V378.122L47.9463 392.029L42.5938 395.119L13.1548 378.123V384.303L42.5938 401.3L66.6802 387.393V393.574L37.2413 410.57L42.5938 413.661L72.0328 396.664V368.852L77.3853 371.942V399.755L47.9463 416.751L53.2989 419.841L82.7379 402.845V368.852L58.6514 354.945L64.004 351.855L93.4243 368.839L93.4429 368.852L122.863 385.836L146.95 371.929V378.11L117.511 395.106L122.863 398.197L152.302 381.2V353.388L157.655 356.478V384.291L128.216 401.287L133.568 404.377L163.007 387.381V353.388L138.921 339.482L144.273 336.391L173.712 353.388V347.207L144.273 330.211L120.187 344.117V337.936L149.626 320.94L149.613 320.932L179.034 303.946V276.133L184.387 279.223V307.036L154.948 324.032L154.961 324.04L149.626 327.12L173.712 341.026V334.846L160.318 327.113L189.739 310.126V276.133L165.652 262.227L171.005 259.136L200.444 276.133V276.098L229.875 293.089L253.961 279.183V285.364L224.523 302.36L229.875 305.451L259.314 288.454V260.642L264.667 263.732V291.545L235.228 308.541L240.58 311.631L270.019 294.635V260.642L245.932 246.735L251.285 243.645L280.705 260.629L280.724 260.641L310.144 277.626L334.231 263.719V269.9L304.792 286.896L310.144 289.987L339.583 272.99V245.178L344.936 248.268V276.081L315.497 293.077L320.849 296.167L350.288 279.171V245.178L326.202 231.271L331.554 228.181L360.993 245.178V238.997L331.554 222.001L307.468 235.907V229.726L336.907 212.73L336.894 212.722L366.315 195.735V167.923L371.668 171.013V198.826L342.229 215.822L342.242 215.83L336.907 218.91L360.993 232.816V226.636L347.599 218.903L377.02 201.916V167.923L352.934 154.017L358.286 150.926L387.725 167.923V161.742L358.286 144.746L334.2 158.652V152.471L363.639 135.475L358.286 132.385L328.847 149.381V177.194L323.495 174.103V140.15L323.504 140.145V106.152L299.417 92.2458L304.77 89.1555L334.209 106.152V99.9715L304.77 82.9749L280.683 96.8813V90.7006L310.088 73.7236L310.14 73.7536L339.579 56.757V28.9445L344.932 32.0348V59.8474L315.527 76.8243L315.475 76.7943L310.122 79.8846L334.209 93.7908V87.6104L320.879 79.9145L350.284 62.9377V28.9445L326.198 15.0382L331.551 11.9479L360.989 28.9444V22.7639L331.551 5.76736L307.464 19.6736V13.493L336.903 -3.50351L336.89 -3.51123L366.311 -20.4977V-48.3102L371.664 -45.22V-17.4073L342.225 -0.410889L342.238 -0.403198L336.903 2.677L360.989 16.5833V10.4028L347.595 2.66931L377.016 -14.317V-48.3102L352.93 -62.2165L358.282 -65.3069L387.721 -48.3103V-54.4909L358.282 -71.4874L334.196 -57.5811V-63.7617L363.635 -80.7583L358.282 -83.8485L328.843 -66.852V-39.0395L323.491 -42.1297V-76.1229L323.434 -76.0901V-110.007L299.348 -123.914L304.7 -127.004L334.139 -110.007V-116.188L304.7 -133.185L280.614 -119.278V-125.459L310.053 -142.455L304.7 -145.546L275.261 -128.549V-100.737L269.909 -103.827V-137.82L264.556 -134.73V-100.737L288.643 -86.8302L283.29 -83.7399L253.861 -100.731L253.851 -100.736L224.422 -117.73L200.335 -103.823V-110.004L229.774 -127L224.422 -130.091L194.983 -113.094V-85.2816L189.63 -88.3719V-122.365L184.352 -119.323V-119.339L189.608 -122.374V-156.351L165.522 -170.257L170.875 -173.348L200.314 -156.351V-162.532L170.875 -179.528L146.788 -165.622V-171.803L176.227 -188.799L170.875 -191.889L141.436 -174.893V-147.08L136.083 -150.171V-184.124L136.092 -184.129V-218.122L112.005 -232.028L117.358 -235.119L146.797 -218.122V-224.303L117.358 -241.299L93.2715 -227.393V-233.573L122.71 -250.57L117.358 -253.66L87.9189 -236.664V-208.851L82.5664 -211.941V-245.935L77.2138 -242.844V-208.851L101.3 -194.945L95.9477 -191.854L66.5276 -208.839L66.5088 -208.851L37.0886 -225.835L13.0022 -211.929V-218.109L42.4412 -235.106L37.0886 -238.196L7.64969 -221.2V-193.387L2.29715 -196.477V-230.471L-3.05539 -227.38V-193.387L21.031 -179.481L15.6785 -176.391L-13.7605 -193.387V-187.207L15.6785 -170.21L39.7649 -184.116V-177.936L10.326 -160.939L10.3077 -160.949L-19.1313 -143.953V-116.14L-24.4838 -119.231V-153.224L-29.8364 -150.133V-116.14L-5.74995 -102.234L-11.1025 -99.1436L-40.387 -116.051V-116.148L-69.8259 -133.145L-93.9123 -119.238V-125.419L-64.4734 -142.415L-69.8259 -145.506L-99.2649 -128.509V-100.697L-104.617 -103.787V-137.78L-109.97 -134.69V-100.697L-85.8835 -86.7902L-91.2361 -83.7L-120.656 -100.684L-120.675 -100.696L-150.095 -117.681L-174.182 -103.774V-109.955L-144.743 -126.951L-150.095 -130.042L-179.534 -113.045V-85.2326L-184.887 -88.3229V-122.316L-190.239 -119.226V-85.2326L-166.153 -71.3262L-171.505 -68.236L-200.944 -85.2325V-79.052L-171.505 -62.0555L-147.419 -75.9617V-69.7811L-176.858 -52.7847L-176.876 -52.7948L-206.315 -35.7983V-7.98573L-211.668 -11.076V-45.0692L-217.02 -41.9788V-7.98573L-192.934 5.92065L-198.286 9.01089L-227.725 -7.9856V-1.80511L-198.286 15.1914L-174.2 1.28516V7.46579L-203.639 24.4622L-198.287 27.5527L-168.847 10.556V-17.2565L-163.495 -14.1663V13.6465L-192.934 30.6429L-187.581 33.7332L-174.16 25.9842V47.6123L-168.807 50.7027V22.8901L-163.455 19.8036V53.7929L-139.368 67.6993L-144.721 70.7896L-174.16 53.7931V59.9735L-144.721 76.9701L-120.634 63.0638V69.2444L-150.073 86.2408L-150.066 86.2448L-179.476 103.224V131.037L-184.828 127.946V93.9531L-190.181 97.0435V131.037L-166.094 144.943L-171.447 148.033L-200.886 131.037V137.217L-171.447 154.214L-147.36 140.307V146.488L-176.799 163.485L-176.818 163.474L-206.257 180.471V208.284L-211.609 205.193V171.2L-216.962 174.29V208.284L-192.875 222.19L-198.228 225.28L-227.667 208.284V214.464L-198.228 231.461L-174.141 217.554V223.735L-203.58 240.731L-198.228 243.822L-168.789 226.825V199.013L-163.436 202.103V229.916L-192.875 246.912L-187.523 250.002L-174.101 242.25V263.882L-168.749 266.972V239.159L-163.396 236.069V270.062L-139.31 283.969L-144.662 287.059L-174.101 270.062V276.243L-144.662 293.239L-120.576 279.333V285.514L-150.015 302.51L-144.662 305.6L-115.223 288.604V260.791L-109.871 263.882V291.694L-139.31 308.691L-133.957 311.781L-104.518 294.785V260.791L-128.605 246.885L-123.252 243.795L-93.8316 260.779L-93.813 260.791L-64.3926 277.775L-40.3062 263.869V270.05L-69.7452 287.046L-64.3926 290.137L-34.9537 273.14V245.327L-29.6012 248.418V276.23L-59.0401 293.227L-53.6876 296.317L-40.4108 288.652V310.163L-35.0582 313.254V285.561L-29.7057 282.471V316.344L-5.61928 330.25L-10.9718 333.34L-40.4108 316.344V322.524L-10.9718 339.521L13.1146 325.615V331.795L-16.3243 348.792L-10.9718 351.882L18.4671 334.886V307.073L23.8197 310.163V337.976L-5.61928 354.972L-0.266739 358.063ZM109.333 -106.872L103.999 -103.792V-103.819L109.333 -106.898V-106.872ZM103.999 -103.792V-69.8255L128.085 -55.9191L122.733 -52.8289L93.3122 -69.813L93.2937 -69.8254L63.8732 -86.8095L39.7868 -72.9033V-79.0839L69.1863 -96.0575L69.2258 -96.0804L98.6279 -113.053V-140.865L103.98 -137.775V-109.962L69.226 -89.8999L93.2937 -76.0062L93.3122 -75.9937L98.6462 -72.9158V-100.702L103.999 -103.792ZM109.351 -106.909L109.333 -106.898V-140.865L85.2466 -154.771L90.5991 -157.862L120.038 -140.865V-140.892L149.464 -123.903L173.551 -137.809V-131.629L144.112 -114.632L144.126 -114.625L114.704 -97.6381V-69.8255L109.351 -72.9158V-106.909ZM253.921 115.423L224.5 98.4389L200.414 112.345V106.165L229.853 89.168L259.31 72.221V44.4085L264.663 47.4987V75.3114L235.224 92.3079L229.853 95.3485L253.921 109.242L253.939 109.255L259.273 112.333V84.6035L264.626 81.5132V115.423L288.712 129.329L283.36 132.42L253.939 115.435L253.921 115.423ZM-131.376 -60.5017L-136.729 -57.4115V-57.4329L-131.376 -60.5233V-60.5017ZM-136.729 -57.4115V-23.4399L-112.642 -9.53348L-117.995 -6.44324L-176.876 -40.4337L-200.963 -26.5274V-32.708L-171.524 -49.7045L-171.506 -49.6942L-142.067 -66.6909V-94.5034L-136.714 -91.4132V-63.6005L-166.153 -46.604L-166.171 -46.6143L-171.524 -43.524L-142.081 -26.5301V-54.3212L-136.729 -57.4115ZM-131.376 -26.5301V-60.5017L-131.362 -60.5102V-94.5034L-155.448 -108.41L-150.095 -111.5L-120.675 -94.516L-120.656 -94.5035L-91.2361 -77.5194L-67.1496 -91.4257V-85.2451L-126.024 -51.2524V-23.4399L-131.376 -26.5301ZM-40.444 106.235V106.268L-11.005 123.265L13.0814 109.358V115.539L-16.3575 132.536L-16.305 132.566L-45.6896 149.531V177.343L-51.0421 174.253V140.3L-51.0335 140.295V106.302L-75.1199 92.3956L-69.7674 89.3052L-40.444 106.235ZM-40.3284 100.121V100.154L-11.005 117.084L-5.65247 113.994L-29.7389 100.088V66.1873L-35.0914 69.2775V96.9973L-40.444 93.9069V93.874L-64.4146 80.0343L-59.0921 76.9613L-59.0986 76.9575L-29.6597 59.9612V32.1485L-35.0122 29.0582V56.8708L-64.4214 73.85L-64.4148 73.8538L-93.8538 90.8503V97.031L-69.7674 83.1247L-40.3284 100.121ZM173.635 -113.206L173.647 -113.159V-113.143L173.569 -113.098L173.573 -113.078V-97.6433L160.187 -105.372L173.635 -113.206ZM179 -116.249V-116.233L184.278 -119.275V-85.2816L208.364 -71.3753L203.012 -68.285L173.582 -85.2769L173.573 -85.2815L144.143 -102.273L120.056 -88.3672V-94.5478L149.495 -111.544L149.482 -111.552L178.903 -128.539V-156.351L184.256 -153.261V-125.448L154.817 -108.452L154.83 -108.444L149.496 -105.364L173.573 -91.4623L173.582 -91.4576L178.925 -88.3719V-116.168L178.927 -116.191L178.928 -116.208L179 -116.249ZM280.687 208.131L221.846 242.1V269.912L216.494 266.822V232.829L216.453 232.852V198.863L192.367 184.957L197.719 181.866L256.601 215.857L280.687 201.951V208.131ZM286.04 211.221V183.409L291.392 186.499V214.312L256.638 234.374L280.705 248.268L280.724 248.28L286.058 251.358V223.572L291.41 220.482V254.448L315.497 268.355L310.144 271.445L280.724 254.461L280.705 254.449L251.285 237.464L227.199 251.371V245.19L286.04 211.221ZM200.432 53.7083L200.411 53.6961L170.972 36.6996L146.886 50.6058V44.4252L176.305 27.439L176.325 27.4287L205.744 10.4424V-17.3702L211.097 -14.2799V13.5327L181.677 30.519L181.658 30.5293L176.325 33.6092L200.411 47.4844L200.432 47.4986L200.474 47.5208L205.785 50.589V22.7765L211.137 19.6862V53.6793L235.224 67.5856L229.871 70.6759L200.432 53.7083ZM253.958 69.1308L224.552 86.1077L224.5 86.0778L195.061 103.074V130.887L189.709 127.797L189.706 93.8699L189.709 93.8034L189.706 59.8767L165.62 45.9705L170.972 42.8801L229.871 76.8564L253.958 62.9501V69.1308ZM39.75 -159.407L45.1025 -162.497V-162.476L39.75 -159.386V-159.407ZM39.75 -159.386L39.7466 -143.953L26.3836 -151.668L39.75 -159.386ZM45.1025 -134.685V-162.476L50.455 -165.566V-131.594L74.5415 -117.688L69.1889 -114.598L10.3077 -148.588L-13.7787 -134.682V-140.863L15.6602 -157.859L15.6785 -157.849L45.1175 -174.845V-202.658L50.47 -199.568V-171.755L21.031 -154.759L21.0127 -154.769L15.6602 -151.679L45.1025 -134.685ZM171.005 252.956L200.436 269.948V269.912L229.875 286.909L235.228 283.819L211.141 269.912V235.919L205.789 239.01V266.822L200.444 263.736V263.772L176.358 249.865L181.697 246.783L181.662 246.762L211.101 229.766V201.953L205.748 198.863V226.675L176.322 243.664L176.358 243.685L146.919 260.681V266.862L171.005 252.956ZM200.436 257.586L187.027 249.845L200.436 242.1V257.586ZM170.992 240.602L170.957 240.582L200.396 223.585V217.405L176.309 231.311L146.927 214.347V214.362L117.489 197.366L112.136 200.456L136.222 214.362V248.355L136.214 248.36V282.313L141.566 285.404V257.591L170.992 240.602ZM267.345 234.376L280.705 242.089V226.662L267.345 234.376ZM296.745 183.409V217.375L296.763 217.365V251.358L302.115 254.448V226.636L331.537 209.649L331.524 209.642L360.963 192.645V186.465L336.876 200.371L307.45 183.382V183.409L278.011 166.412L272.658 169.503L296.745 183.409ZM307.437 177.221L278.011 160.232L253.925 174.138V167.957L312.799 133.965V106.152L318.151 109.242V137.055L283.364 157.141L307.45 171.048V171.02L312.79 174.103V146.331L318.142 143.241V177.194L342.229 191.1L336.876 194.19L307.437 177.194V177.221ZM208.443 169.515L237.882 152.519V124.706L232.529 121.616V149.429L203.09 166.425L203.072 166.415L173.633 183.411V189.592L197.719 175.686L256.601 209.676L261.953 206.586L237.867 192.68V158.708L232.514 161.798V189.589L203.072 172.595L208.424 169.505L208.443 169.515ZM227.162 164.888L213.795 172.606L227.158 180.321L227.162 164.888ZM243.234 155.609L243.22 155.618V189.589L248.572 192.68V164.867L307.446 130.874V124.694L283.36 138.6L253.939 121.616L253.921 121.603L224.5 104.619L219.148 107.71L243.234 121.616V155.609ZM307.437 164.86V149.421L294.065 157.142L307.437 164.86ZM253.921 103.063L240.61 95.3786L253.921 87.6937V103.063ZM269.978 78.4229L270.015 78.4016V44.4085L245.928 30.5022L251.281 27.4118L280.701 44.3959L280.72 44.4083L310.14 61.3924L334.227 47.4861V53.6668L304.822 70.6438L304.77 70.6138L275.331 87.6104V115.423L269.978 112.333V78.4229ZM280.72 38.2278L310.14 55.2119L315.493 52.1217L291.406 38.2153V4.24863L286.054 7.33887V35.1251L280.72 32.0472L280.701 32.0346L256.634 18.1409L261.949 15.0751L261.989 15.0522L291.388 -1.92142V-29.7341L286.036 -32.8243V-5.01178L227.195 28.9569V35.1376L251.281 21.2313L280.701 38.2154L280.72 38.2278ZM267.342 18.1425L280.701 25.8559V10.4292L267.342 18.1425ZM296.741 1.14233V-32.8243L272.654 -46.7306L278.007 -49.821L307.446 -32.8245V-32.8515L336.872 -15.8623L360.959 -29.7686V-23.5879L331.52 -6.59154L331.533 -6.58368L302.112 10.4028V38.2153L296.759 35.1251V1.13187L296.741 1.14233ZM251.284 8.87158L251.244 8.89435L221.842 25.8667V53.6793L216.49 50.589V16.5958L216.449 16.6191V-17.3702L192.363 -31.2764L197.715 -34.3669L256.597 -0.376404L280.683 -14.2827V-8.10205L251.284 8.87158ZM187.029 33.6088L200.432 41.2446V25.8667L187.029 33.6088ZM170.953 24.3485L170.972 24.3384L200.392 7.35208V1.17145L176.305 15.0777L146.895 -1.90259V-1.89423L117.456 -18.8907L112.103 -15.8004L136.189 -1.89407V32.0991L136.181 32.1042V66.0572L141.533 69.1475V41.3349L170.953 24.3485ZM237.863 -57.5035V-23.5536L261.949 -9.64719L256.597 -6.55695L197.715 -40.5473L173.629 -26.6411V-32.8217L202.975 -49.7645L203.012 -49.7432L232.451 -66.7399V-94.5524L237.803 -91.4622V-63.6495L208.457 -46.7067L208.42 -46.728L203.068 -43.6377L232.511 -26.6438V-54.4132L237.863 -57.5035ZM243.156 -94.5524V-60.6025L243.216 -60.637V-26.6438L248.568 -23.5536V-51.3661L278.007 -68.3626L278.036 -68.3456L307.377 -85.285V-91.4657L283.29 -77.5594L253.861 -94.5526L253.851 -94.558L224.422 -111.549L219.069 -108.459L243.156 -94.5524ZM152.219 -38.9499L157.571 -42.0402V-8.09944L181.658 5.80695L176.305 8.89719L146.866 -8.09927V-8.09094L117.456 -25.0712L93.3692 -11.165V-17.3456L122.723 -34.2929L122.733 -34.2871L152.172 -51.2838V-79.0963L157.524 -76.0061V-48.1934L128.171 -31.2461L128.161 -31.2519L122.808 -28.1616L146.895 -14.2554V-14.2639L152.219 -11.1897V-38.9499ZM162.877 -79.0963V-45.1555L162.924 -45.1829V-11.1897L168.276 -8.09944V-35.912L197.715 -52.9085L197.752 -52.8873L227.098 -69.8301V-76.0108L203.012 -62.1045L173.582 -79.0965L173.573 -79.101L144.143 -96.093L138.79 -93.0026L162.877 -79.0963ZM146.866 -20.4521L133.523 -28.1559L146.866 -35.8596V-20.4521ZM117.465 -37.4268L146.819 -54.374V-60.5547L122.733 -46.6484L93.3122 -63.6325L93.2937 -63.6449L63.8732 -80.629L58.5207 -77.5387L82.6071 -63.6324V-29.674L82.6642 -29.7068V4.28641L88.0166 7.37665V-20.4359L117.456 -37.4324L117.465 -37.4268ZM77.3116 -26.5817L71.9591 -23.4915V4.28641L66.6251 1.20856L66.6065 1.19601L42.5389 -12.6977L47.8914 -15.7879L47.9011 -15.7823L77.2546 -32.7294V-60.5421L71.902 -63.6324V-35.8198L42.4631 -18.8233L42.4535 -18.8289L13.0997 -1.88168V4.29895L37.1861 -9.60735L66.6065 7.3768L66.6251 7.38919L96.0455 24.3733L101.398 21.2831L77.3116 7.37665V-26.5817ZM53.2534 -12.6921L66.6065 -4.9828V-20.4012L53.2534 -12.6921ZM37.1861 -3.42682L66.6065 13.5572L66.6251 13.5697L96.0455 30.5538L120.132 16.6475V22.8282L61.2579 56.8209V84.6334L55.9054 81.5431V47.5715L55.92 47.563V13.5698L31.8336 -0.336395L37.1861 -3.42682ZM130.837 29.0088V1.19617L125.484 -1.89407V25.9184L66.6104 59.9111V66.0917L90.6969 52.1855L120.123 69.1747V69.1476L149.562 86.1441L154.915 83.0539L130.828 69.1475V35.1944L125.476 38.2847V66.0572L120.136 62.9742V63.0013L96.0494 49.0951L130.837 29.0088ZM120.123 41.3749L106.753 49.0942L120.123 56.8135V41.3749ZM149.562 92.3246L120.136 75.3353V75.3625L90.6969 58.366L85.3441 61.4563L109.431 75.3626V109.329L109.449 109.319V143.312L114.802 146.402V118.59L144.223 101.603L144.209 101.595L173.648 84.599V78.4184L149.562 92.3246ZM179.004 100.049L184.356 96.9585V130.887L208.443 144.793L203.09 147.883L173.651 130.887V130.935L144.24 113.954L120.154 127.861V121.68L149.593 104.683L149.579 104.676L179.001 87.6893V59.8767L184.353 62.967V90.7796L154.914 107.776L154.928 107.784L149.593 110.864L173.679 124.77V124.722L179.004 127.797V100.049ZM173.651 118.573L160.285 110.856L173.651 103.139V118.573ZM227.177 146.338L197.738 163.335L197.719 163.325L168.28 180.321V208.134L162.928 205.043V171.151L162.974 171.125V137.131L138.888 123.225L144.24 120.135L173.679 137.131V137.084L203.09 154.064L227.177 140.158V146.338ZM117.489 178.824L117.506 178.834L146.917 161.854V155.673L122.83 169.579L93.41 152.595L93.3914 152.583L63.971 135.599L58.6182 138.689L82.7049 152.595V186.589L82.697 186.593V220.543L88.0496 223.633V195.82L117.489 178.824ZM122.83 181.941L122.813 181.93L93.4021 198.911V205.091L117.489 191.185L146.87 208.148V208.134L176.309 225.13L181.662 222.04L157.575 208.134V174.242L152.223 177.332V205.043L146.927 201.986V202.001L122.841 188.095L128.194 185.004L128.211 185.014L157.622 168.034V140.222L152.269 137.131V164.944L122.83 181.941ZM69.3235 126.328L93.3914 140.222L93.41 140.234L98.7439 143.312V115.526L104.096 112.435V146.402L128.183 160.309L122.83 163.399L93.41 146.415L93.3914 146.402L63.971 129.418L39.8846 143.325V137.144L69.2867 120.172L69.3235 120.147L98.7257 103.175V75.3626L104.078 78.4529V106.266L69.3235 126.328ZM93.3914 134.043L80.0312 126.329L93.3914 118.616V134.043ZM63.9342 117.081L63.9734 117.059L93.3731 100.085V93.9043L69.2867 107.811L10.4051 73.8201L5.0526 76.9105L29.139 90.8168V124.806L29.1795 124.783V158.776L34.5321 161.866V134.054L63.9342 117.081ZM45.2003 53.752L50.5528 50.6618V84.6334L74.6393 98.5398L69.2867 101.63L10.4051 67.6396L-13.6813 81.5459V75.3653L15.7577 58.3687L15.776 58.3789L45.2149 41.3824V13.5698L50.5674 16.6601V44.4727L21.1285 61.4691L21.1102 61.459L15.7579 64.5492L45.2003 81.5431V53.752ZM39.8441 72.275L26.481 64.5594L39.8477 56.8423L39.8441 72.275ZM15.776 46.0178L-13.6021 29.0581L-13.663 29.0212L-43.041 12.0616L-48.3938 15.1519L-24.3072 29.0582V63.0514L-24.3863 63.097V96.9973L-19.0338 100.088V72.275L10.4051 55.2784L10.4234 55.2885L39.8624 38.2921V32.1115L15.776 46.0178ZM-13.6021 22.8776L15.776 39.8372L21.1285 36.747L-2.95792 22.8406V-11.0958L-8.31044 -8.00558V19.7504L-13.6021 16.697L-13.663 16.66L-37.6885 2.79068L-32.3535 -0.28952L-32.3668 -0.297241L-2.92784 -17.2936V-45.1063L-8.28036 -48.1965V-20.384L-37.7018 -3.39755L-37.6885 -3.38986L-67.1274 13.6067V19.7874L-43.041 5.88107L-13.663 22.8407L-13.6021 22.8776ZM146.87 195.787L133.564 188.105L146.87 180.422V195.787ZM130.861 251.451L125.509 254.541V282.313L120.169 279.23V279.258L96.0826 265.351L130.87 245.265V217.452L125.517 214.362V242.175L66.6433 276.167V282.348L90.7298 268.442L120.156 285.431V285.404L149.595 302.4L154.948 299.31L130.861 285.404V251.451ZM106.783 265.352L120.156 257.631V273.07L106.783 265.352ZM144.256 317.859L144.243 317.852L173.682 300.855V294.675L149.595 308.581L120.169 291.592V291.619L90.7298 274.622L85.3773 277.713L109.464 291.619V325.586L109.482 325.575V359.568L114.834 362.659V334.846L144.256 317.859ZM104.129 328.692L98.7769 331.782V359.568L93.4429 356.49L93.4243 356.478L69.3568 342.584L104.111 322.522V294.709L98.7585 291.619V319.431L69.3565 336.404L69.317 336.427L39.9175 353.4V359.581L64.004 345.674L93.4243 362.659L93.4429 362.671L122.863 379.655L128.216 376.565L104.129 362.659V328.692ZM80.0641 342.586L93.4243 350.299V334.872L80.0641 342.586ZM29.2125 341.039L29.1722 341.062V307.073L5.08554 293.167L10.4383 290.076L69.3196 324.067L93.4061 310.161V316.341L34.565 350.31V378.122L29.2125 375.032V341.039ZM69.3196 317.886L74.6721 314.796L50.5858 300.89V266.918L45.2332 270.008V297.799L15.7909 280.805L21.1434 277.715L21.1617 277.725L50.6006 260.729V232.916L45.2481 229.826V257.639L15.8092 274.635L15.7909 274.625L-13.6481 291.622V297.802L10.4383 283.896L69.3196 317.886ZM26.5143 280.816L39.8773 288.531L39.8807 273.099L26.5143 280.816ZM55.9532 263.819L55.9383 263.828V297.799L61.2909 300.89V273.077L120.165 239.084V232.904L96.0784 246.81L66.6583 229.826L66.6394 229.814L37.2193 212.829L31.8665 215.92L55.9532 229.826V263.819ZM-24.3531 279.381L-24.2486 279.321V245.327L-48.3353 231.421L-42.9825 228.331L15.8092 262.274L39.8956 248.368V254.548L10.4566 271.545L10.4383 271.535L-19.0006 288.531V316.344L-24.3531 313.254V279.381ZM15.8092 256.094L21.1617 253.003L-2.92473 239.097V205.188L-8.27725 208.278V236.007L-13.5435 232.966L-13.6298 232.916L-37.63 219.06L-32.2949 215.98L-32.3083 215.972L-2.86929 198.976V171.163L-8.22185 168.073V195.885L-37.6433 212.872L-37.63 212.879L-67.0689 229.876V236.057L-42.9825 222.15L15.8092 256.094ZM66.6583 223.645L66.6394 223.633L37.2193 206.649L13.1329 220.555V214.375L42.5433 197.394L42.5609 197.405L71.9998 180.408V152.595L77.3524 155.686V183.498L47.9416 200.478L47.9244 200.468L42.5718 203.559L66.6394 217.452L66.6583 217.465L71.992 220.543V192.774L77.3445 189.683V223.633L101.431 237.539L96.0784 240.63L66.6583 223.645ZM66.6394 195.864L53.2942 203.569L66.6394 211.274V195.864ZM66.6473 177.318L37.2366 194.298L37.2193 194.288L7.78036 211.284V239.097L2.42783 236.007V202.098L2.48323 202.066V168.073L-21.6034 154.166L-16.2506 151.076L13.1219 168.034V168.047L42.5609 185.043L66.6473 171.137V177.318ZM13.1883 161.905V161.892L-16.2506 144.896L-40.337 158.802V152.621L-10.8981 135.625L-10.9506 135.594L18.4339 118.629V90.8168L23.7865 93.907V121.72L-5.65247 138.716L-5.59995 138.746L-10.8981 141.805L13.1219 155.673V155.686L18.4744 158.776V130.963L23.827 127.873V161.866L47.9134 175.773L42.5609 178.863L13.1883 161.905ZM13.1219 149.493L-0.24556 141.775L13.1219 134.054V149.493ZM-123.252 237.614L-93.8316 254.598L-93.813 254.611L-64.3926 271.595L-59.0401 268.505L-83.1265 254.598V220.632L-88.479 223.722V251.508L-93.813 248.43L-93.8316 248.418L-117.899 234.524L-83.1448 214.462V186.649L-88.4973 183.559V211.371L-117.899 228.343L-117.939 228.366L-147.338 245.34V251.52L-123.252 237.614ZM-13.6298 226.736L-26.9382 219.052L-13.6298 211.369V226.736ZM-43 209.799L-43.0133 209.791L-13.5744 192.795V186.614L-37.6608 200.521L-67.0872 183.531V183.558L-96.5262 166.562L-101.879 169.652L-77.7923 183.559V217.525L-77.774 217.515V251.508L-72.4214 254.598V226.786L-43 209.799ZM-93.8316 226.812L-107.192 234.525L-93.8316 242.239V226.812ZM-152.691 242.25L-123.289 225.278L-123.252 225.253L-93.8499 208.281V202.1L-117.936 216.006L-176.818 182.016L-182.17 185.106L-158.084 199.013V233.002L-158.043 232.979V266.972L-152.691 270.062V242.25ZM-96.5262 160.381L-67.0997 177.371V177.344L-37.6608 194.34L-32.3083 191.25L-56.3947 177.343V143.39L-61.7472 146.481V174.253L-67.0872 171.17V171.197L-91.1733 157.291L-56.386 137.205V109.392L-61.7386 106.302V134.114L-120.613 168.107V174.288L-96.5262 160.381ZM-136.655 152.669L-166.094 169.665L-166.113 169.655L-171.465 172.745L-142.023 189.739V161.948L-136.67 158.858V192.829L-112.584 206.736L-117.936 209.826L-176.818 175.836L-200.904 189.742V183.561L-171.465 166.565L-171.447 166.575L-142.008 149.578V121.766L-136.655 124.856V152.669ZM-160.742 172.756L-147.375 165.038L-147.379 180.471L-160.742 172.756ZM-131.318 155.767L-131.303 155.759V121.766L-155.389 107.86L-150.037 104.769L-120.616 121.753L-120.598 121.766L-91.1775 138.75L-67.0911 124.844V131.024L-125.965 165.017V192.829L-131.318 189.739V155.767ZM-80.4701 157.29L-67.0997 165.009V149.571L-80.4701 157.29ZM-91.1775 132.569L-120.598 115.585L-120.616 115.573L-150.037 98.5886L-174.123 112.495V106.314L-144.684 89.3178L-144.691 89.314L-115.282 72.3347V44.5222L-109.929 47.6124V75.4251L-139.368 92.4216L-139.362 92.4254L-144.684 95.4982L-120.616 109.392L-120.598 109.405L-115.264 112.482V84.6855L-109.911 81.5953V115.573L-85.825 129.479L-91.1775 132.569ZM-104.577 78.4995V44.5222L-128.663 30.6159L-123.311 27.5255L-93.8901 44.5096L-93.8716 44.522L-64.4512 61.5061L-40.3648 47.5999V53.7805L-69.8037 70.7769L-69.7972 70.7808L-99.2063 87.7601V115.573L-104.559 112.482V78.4892L-104.577 78.4995ZM-120.616 87.7758L-133.986 95.4944L-120.616 103.213V87.7758ZM-53.7163 80.0305L-40.444 72.3678V87.6935L-53.7163 80.0305ZM-147.437 -35.7983L-160.8 -43.5137L-147.434 -51.231L-147.437 -35.7983ZM-117.995 -0.262726L-176.876 -34.2532L-182.229 -31.1628L-158.143 -17.2565V16.7328L-158.102 16.7095V50.7027L-152.749 53.7929V25.9804L-93.9084 -7.98834V-14.169L-117.995 -0.262726ZM-117.998 12.097L-117.958 12.0741L-88.5559 -4.8981V-32.7106L-83.2034 -29.6204V-1.80771L-117.958 18.2546L-93.8901 32.1483L-93.8716 32.1609L-88.5376 35.2387V7.45258L-83.185 4.36234V38.329L-59.0986 52.2354L-64.4512 55.3256L-93.8716 38.3416L-93.8901 38.3291L-123.311 21.345L-147.397 35.2513V29.0706L-117.998 12.097ZM2.39462 -14.1861L2.42468 -14.2034V-48.1965L-21.662 -62.1028L-16.3092 -65.1932L13.0242 -48.2576V-48.181L42.4631 -31.1845L66.5496 -45.0907V-38.9101L37.1958 -21.9628L37.1861 -21.9685L7.74716 -4.97192V22.8406L2.39462 19.7504V-14.1861ZM-13.663 10.4814V-4.91534L-26.997 2.78296L-13.663 10.4814ZM-43.0585 -6.47L-43.0719 -6.47786L-13.6329 -23.4743V-29.6549L-37.7193 -15.7486L-67.1457 -32.7378V-32.7108L-96.5847 -49.7073L-101.937 -46.6169L-77.8508 -32.7106V1.25601L-77.8325 1.24557V35.2387L-72.48 38.329V10.5164L-43.0585 -6.47ZM-93.8901 25.9697V10.5428L-107.25 18.2562L-93.8901 25.9697ZM-96.5847 -55.8878L-67.1583 -38.8986V-38.9256L-37.7193 -21.9291L-32.3668 -25.0194L-56.4532 -38.9258V-72.8788L-61.8057 -69.7886V-42.016L-67.1457 -45.0991V-45.0719L-91.2319 -58.9782L-56.4446 -79.0644V-106.877L-61.7971 -109.967V-82.1548L-120.671 -48.1622V-41.9815L-96.5847 -55.8878ZM-51.1007 -75.9691L-51.092 -75.9742V-109.967L-75.1785 -123.874L-69.8259 -126.964L-40.5414 -110.057V-109.96L-11.1025 -92.9631L12.9839 -106.869V-100.689L-16.455 -83.6924L-16.419 -83.6714L-45.7481 -66.7383V-38.9258L-51.1007 -42.016V-75.9691ZM-67.1583 -66.6983L-80.5286 -58.9791L-67.1583 -51.2597V-66.6983ZM13.1298 -54.3772V-54.3006L42.4631 -37.365L47.8156 -40.4552L23.7292 -54.3616V-88.3547L18.3767 -85.2644V-57.4519L13.0242 -60.5423V-60.6187L-10.9566 -74.4641L-5.7139 -77.491L-5.74995 -77.5117L23.689 -94.5081V-122.321L18.3365 -125.411V-97.5985L-10.9927 -80.6654L-10.9566 -80.6446L-40.3956 -63.6481V-57.4674L-16.3092 -71.3737L13.1298 -54.3772ZM-0.287643 -74.4849L13.0242 -66.7992V-82.1742L-0.287643 -74.4849ZM34.4343 -82.1742V-54.3616L29.0818 -57.4519V-91.445L29.0415 -91.4218V-125.411L4.95485 -139.317L10.3077 -142.408L69.1889 -108.417L93.2754 -122.324V-116.143L34.4343 -82.1742ZM93.2937 -82.1849L79.9335 -89.8983L93.2937 -97.6118V-82.1849ZM130.731 -181.033V-147.08L154.817 -133.174L149.464 -130.084L120.026 -147.08V-147.053L90.5991 -164.042L66.5127 -150.136V-156.317L125.387 -190.309V-218.122L130.739 -215.032V-187.219L95.9519 -167.133L120.038 -153.226V-153.254L125.378 -150.171V-177.943L130.731 -181.033ZM120.026 -159.414V-174.853L106.655 -167.134L120.026 -159.414ZM120.034 -193.4V-199.58L95.9477 -185.674L66.5276 -202.658L66.5088 -202.67L37.0886 -219.655L31.7358 -216.564L55.8225 -202.658V-168.665L55.8076 -168.656V-134.685L61.1601 -131.594V-159.407L120.034 -193.4ZM106.653 -228.938L120.034 -221.212V-205.761L106.653 -198.035L93.2715 -205.761V-221.212L106.653 -228.938ZM13.0022 -205.748L26.3833 -213.474L39.7649 -205.748V-190.297L26.3836 -182.571L13.0022 -190.297V-205.748ZM79.894 -151.681L66.5127 -143.956V-128.504L79.894 -120.778L93.2754 -128.504V-143.955L79.894 -151.681ZM-0.397659 -136.227L12.9839 -128.501V-113.05L-0.3974 -105.324L-13.7787 -113.05V-128.501L-0.397659 -136.227ZM173.551 -159.441L160.169 -167.167L146.788 -159.441V-143.99L160.17 -136.264L173.551 -143.99V-159.441ZM133.438 -89.9123L146.819 -82.1866V-66.7352L133.438 -59.0094L120.056 -66.7352V-82.1867L133.438 -89.9123ZM227.154 -35.912L227.158 -51.323L213.81 -43.6164L227.154 -35.912ZM278.007 -56.0015L307.433 -39.0123V-39.0393L336.872 -22.0428L342.225 -25.1331L318.138 -39.0395V-72.9567L312.786 -69.8665V-42.1297L307.446 -45.2128V-45.1856L283.36 -59.0919L288.712 -62.1821L288.742 -62.1651L318.082 -79.1044V-106.917L312.729 -110.007V-82.1948L283.29 -65.1983L283.261 -65.2153L253.921 -48.2758V-42.0952L278.007 -56.0015ZM294.094 -59.0749L307.433 -51.3734V-66.7762L294.094 -59.0749ZM293.995 -120.823L307.377 -113.098V-97.6462L293.995 -89.9204L280.614 -97.6462V-113.098L293.995 -120.823ZM227.098 -97.6427L213.717 -105.368L200.335 -97.6428V-82.1913L213.717 -74.4655L227.098 -82.1913V-97.6427ZM267.302 -43.6403L280.683 -35.9146V-20.4632L267.302 -12.7374L253.921 -20.4632V-35.9147L267.302 -43.6403ZM347.577 -59.1262L360.959 -51.4005V-35.9491L347.577 -28.2233L334.196 -35.9491V-51.4006L347.577 -59.1262ZM200.392 -20.4604L187.01 -28.1862L173.629 -20.4606V-5.00903L187.01 2.71671L200.392 -5.00903V-20.4604ZM66.5496 -66.7226L53.1682 -74.4484L39.7868 -66.7228V-51.2712L53.1682 -43.5455L66.5496 -51.2712V-66.7226ZM-80.531 -120.783L-67.1496 -113.058V-97.6062L-80.531 -89.8804L-93.9123 -97.6062V-113.058L-80.531 -120.783ZM-27.0145 -59.0125L-13.6329 -51.2868V-35.8354L-27.0143 -28.1096L-40.3956 -35.8354V-51.2869L-27.0145 -59.0125ZM39.8624 10.4796L26.481 2.75385L13.0997 10.4794V25.931L26.481 33.6567L39.8624 25.931V10.4796ZM-160.8 -105.319L-147.419 -97.5937V-82.1423L-160.8 -74.4165L-174.182 -82.1423V-97.5938L-160.8 -105.319ZM-107.29 -43.5267L-93.9084 -35.8009V-20.3495L-107.29 -12.6237L-120.671 -20.3495V-35.801L-107.29 -43.5267ZM-40.3648 25.968L-53.7464 18.2422L-67.1274 25.9679V41.4193L-53.7461 49.1451L-40.3648 41.4193V25.968ZM-120.634 41.4319L-134.016 33.7061L-147.397 41.4318V56.8833L-134.016 64.6091L-120.634 56.8833V41.4319ZM-187.581 -28.0725L-174.2 -20.3468V-4.89539L-187.581 2.83041L-200.963 -4.89539V-20.3469L-187.581 -28.0725ZM-80.4724 95.4858L-67.0911 103.212V118.663L-80.4724 126.389L-93.8538 118.663V103.211L-80.4724 95.4858ZM13.0814 87.7265L-0.299942 80.0007L-13.6813 87.7263V103.178L-0.299942 110.904L13.0814 103.178V87.7265ZM-160.742 110.95L-147.36 118.676V134.127L-160.742 141.853L-174.123 134.127V118.675L-160.742 110.95ZM-187.523 188.197L-174.141 195.922V211.374L-187.523 219.1L-200.904 211.374V195.922L-187.523 188.197ZM-93.8499 180.468L-107.231 172.743L-120.613 180.468V195.92L-107.231 203.645L-93.8499 195.92V180.468ZM-13.5744 164.982L-26.956 157.257L-40.337 164.982V180.434L-26.9557 188.16L-13.5744 180.434V164.982ZM-120.576 257.701L-133.957 249.975L-147.338 257.701V273.153L-133.957 280.878L-120.576 273.153V257.701ZM-53.6878 234.511L-40.3062 242.237V257.689L-53.6876 265.414L-67.0689 257.689V242.237L-53.6878 234.511ZM39.8956 226.736L26.514 219.01L13.1329 226.736V242.187L26.5143 249.913L39.8956 242.187V226.736ZM66.6473 149.505L53.2657 141.779L39.8846 149.505V164.957L53.2659 172.682L66.6473 164.957V149.505ZM106.783 203.546L120.165 211.272V226.723L106.783 234.449L93.4021 226.723V211.272L106.783 203.546ZM13.1146 303.983L-0.266998 296.257L-13.6481 303.983V319.434L-0.266739 327.16L13.1146 319.434V303.983ZM80.0247 280.803L93.4061 288.529V303.98L80.0247 311.706L66.6433 303.98V288.529L80.0247 280.803ZM53.2989 358.036L66.6802 365.761V381.213L53.2989 388.939L39.9175 381.213V365.761L53.2989 358.036ZM133.568 342.572L146.95 350.297V365.749L133.568 373.475L120.187 365.749V350.297L133.568 342.572ZM160.3 265.317L173.682 273.043V288.494L160.3 296.22L146.919 288.494V273.043L160.3 265.317ZM200.396 195.773L187.014 188.047L173.633 195.773V211.224L187.014 218.95L200.396 211.224V195.773ZM146.917 134.041L133.535 126.315L120.154 134.041V149.493L133.535 157.218L146.917 149.493V134.041ZM93.3731 72.2724L79.9915 64.5466L66.6104 72.2722V87.7238L79.9918 95.4496L93.3731 87.7238V72.2724ZM213.795 110.8L227.177 118.526V133.977L213.795 141.703L200.414 133.977V118.526L213.795 110.8ZM173.648 56.7865L160.267 49.0607L146.886 56.7863V72.2379L160.267 79.9636L173.648 72.2379V56.7865ZM120.132 -4.98433L106.75 -12.7101L93.3692 -4.98447V10.467L106.751 18.1928L120.132 10.467V-4.98433ZM240.576 33.5925L253.958 41.3182V56.7696L240.576 64.4954L227.195 56.7696V41.3181L240.576 33.5925ZM320.845 18.1285L334.227 25.8543V41.3057L320.845 49.0314L307.464 41.3057V25.8542L320.845 18.1285ZM294.064 95.3361L307.446 103.062V118.513L294.065 126.239L280.683 118.513V103.062L294.064 95.3361ZM347.581 157.107L360.963 164.833V180.284L347.581 188.01L334.2 180.284V164.833L347.581 157.107ZM280.687 180.319L267.306 172.593L253.925 180.318V195.77L267.306 203.496L280.687 195.77V180.319ZM334.231 242.087L320.849 234.362L307.468 242.087V257.539L320.849 265.265L334.231 257.539V242.087ZM240.58 249.826L253.961 257.551V273.003L240.58 280.729L227.199 273.003V257.551L240.58 249.826Z" fill="black"/>
</g>
<path d="M86.9999 24L55.5 41.9999L55.5 34L80 20L86.9999 24Z" fill="white"/>
<path fill-rule="evenodd" clip-rule="evenodd" d="M27.5 102L27.5 110L51.9999 124L58.9999 120L27.5 102Z" fill="white"/>
<path fill-rule="evenodd" clip-rule="evenodd" d="M108 36L132.5 50V57.9999L101 40L108 36Z" fill="white"/>
<path fill-rule="evenodd" clip-rule="evenodd" d="M125.5 78.0001V114L132.5 110V82.0002L125.5 78.0001Z" fill="white"/>
<path fill-rule="evenodd" clip-rule="evenodd" d="M118.5 118V74.0001L86.9999 56.0001L94.0001 52L132.5 73.9999V66L94.0001 44.0001L62.5 62V53.9999L101 32L94 28.0001L55.5 50L55.5 85.9999L48.5 82L48.5 37.9999L41.5 42.0001L41.5 85.9999L73.0001 104L66 108L27.5 86.0001L27.5 94L66 116L97.5 98L97.5 106L59 128L65.9999 132L104.5 110L104.5 74.0001L111.5 78L111.5 114L73 136L79.9999 140L118.5 118ZM79.9999 60L97.5 70.0001V90.0001L80 100L62.5 90L62.5 69.9999L79.9999 60Z" fill="white"/>
<path fill-rule="evenodd" clip-rule="evenodd" d="M34.5 46.0001L27.5 50.0001L27.5 77.9999L34.5 82L34.5 46.0001Z" fill="white"/>
</g>
<defs>
<clipPath id="clip0_96_3">
<rect width="160" height="160" fill="white"/>
</clipPath>
</defs>
</svg>
