<svg xmlns="http://www.w3.org/2000/svg" xmlns:xlink="http://www.w3.org/1999/xlink" width="1584" zoomAndPan="magnify" viewBox="0 0 1188 296.999993" height="396" preserveAspectRatio="xMidYMid meet" version="1.0"><path fill="#523cb5" d="M 207.902344 14.757812 L 133.394531 57.8125 L 133.394531 38.675781 L 191.347656 5.1875 Z M 207.902344 14.757812 " fill-opacity="1" fill-rule="nonzero"/><path fill="#523cb5" d="M 67.160156 201.328125 L 67.160156 220.460938 L 125.113281 253.949219 L 141.671875 244.382812 Z M 67.160156 201.328125 " fill-opacity="1" fill-rule="evenodd"/><path fill="#523cb5" d="M 257.578125 43.460938 L 315.53125 76.945312 L 315.53125 96.082031 L 241.019531 53.027344 Z M 257.578125 43.460938 " fill-opacity="1" fill-rule="evenodd"/><path fill="#523cb5" d="M 298.972656 143.921875 L 298.972656 230.03125 L 315.53125 220.460938 L 315.53125 153.488281 Z M 298.972656 143.921875 " fill-opacity="1" fill-rule="evenodd"/><path fill="#523cb5" d="M 282.414062 239.597656 L 282.414062 134.351562 L 207.902344 91.296875 L 224.460938 81.730469 L 315.53125 134.351562 L 315.53125 115.21875 L 224.460938 62.59375 L 149.953125 105.648438 L 149.953125 86.515625 L 241.019531 33.890625 L 224.460938 24.324219 L 133.394531 76.945312 L 133.394531 163.054688 L 116.835938 153.488281 L 116.835938 48.242188 L 100.277344 57.8125 L 100.277344 163.054688 L 174.789062 206.109375 L 158.230469 215.679688 L 67.160156 163.054688 L 67.160156 182.191406 L 158.230469 234.8125 L 232.742188 191.757812 L 232.742188 210.894531 L 141.671875 263.515625 L 158.230469 273.085938 L 249.300781 220.460938 L 249.300781 134.351562 L 265.855469 143.917969 L 265.855469 230.03125 L 174.789062 282.652344 L 191.347656 292.21875 Z M 191.347656 100.867188 L 232.742188 124.785156 L 232.742188 172.625 L 191.347656 196.542969 L 149.953125 172.625 L 149.953125 124.785156 Z M 191.347656 100.867188 " fill-opacity="1" fill-rule="evenodd"/><path fill="#523cb5" d="M 83.71875 67.378906 L 67.160156 76.945312 L 67.160156 143.917969 L 83.71875 153.488281 Z M 83.71875 67.378906 " fill-opacity="1" fill-rule="evenodd"/><path fill="#ffffff" d="M 1095.042969 92.042969 L 1107.3125 92.042969 L 1107.3125 212.304688 L 1095.042969 212.304688 Z M 1095.042969 92.042969 " fill-opacity="1" fill-rule="nonzero"/><path fill="#ffffff" d="M 987.601562 212.304688 L 1028.992188 92.042969 L 1045.265625 92.042969 L 1086.652344 212.304688 L 1073.882812 212.304688 L 1034.582031 98.894531 L 1039.421875 98.894531 L 1000.371094 212.304688 Z M 1006.042969 183.15625 L 1006.042969 171.632812 L 1068.125 171.632812 L 1068.125 183.15625 Z M 1006.042969 183.15625 " fill-opacity="1" fill-rule="nonzero"/><path fill="#ffffff" d="M 862.371094 212.304688 L 862.371094 92.042969 L 900.671875 92.042969 C 901.675781 92.042969 903.648438 92.074219 906.597656 92.128906 C 909.601562 92.183594 912.492188 92.378906 915.277344 92.710938 C 924.789062 93.9375 932.828125 97.332031 939.390625 102.902344 C 946.011719 108.414062 951.019531 115.457031 954.410156 124.03125 C 957.804688 132.605469 959.5 141.988281 959.5 152.175781 C 959.5 162.363281 957.804688 171.746094 954.410156 180.320312 C 951.019531 188.894531 946.011719 195.964844 939.390625 201.53125 C 932.828125 207.042969 924.789062 210.414062 915.277344 211.636719 C 912.550781 211.96875 909.683594 212.167969 906.679688 212.222656 C 903.679688 212.277344 901.675781 212.304688 900.671875 212.304688 Z M 882.816406 193.347656 L 900.671875 193.347656 C 902.339844 193.347656 904.457031 193.292969 907.015625 193.179688 C 909.628906 193.070312 911.9375 192.816406 913.941406 192.425781 C 919.617188 191.371094 924.234375 188.835938 927.792969 184.828125 C 931.351562 180.820312 933.964844 175.949219 935.636719 170.214844 C 937.359375 164.476562 938.222656 158.464844 938.222656 152.175781 C 938.222656 145.660156 937.359375 139.535156 935.636719 133.800781 C 933.910156 128.066406 931.242188 123.25 927.625 119.355469 C 924.066406 115.457031 919.503906 112.980469 913.941406 111.921875 C 911.9375 111.476562 909.628906 111.226562 907.015625 111.167969 C 904.457031 111.058594 902.339844 111.003906 900.671875 111.003906 L 882.816406 111.003906 Z M 882.816406 193.347656 " fill-opacity="1" fill-rule="nonzero"/><path fill="#ffffff" d="M 825.609375 92.042969 L 845.71875 92.042969 L 845.71875 212.304688 L 825.609375 212.304688 Z M 825.609375 92.042969 " fill-opacity="1" fill-rule="nonzero"/><path fill="#ffffff" d="M 722.113281 212.304688 L 722.113281 92.042969 L 771.765625 92.042969 C 772.933594 92.042969 774.433594 92.101562 776.269531 92.210938 C 778.105469 92.265625 779.800781 92.433594 781.359375 92.710938 C 788.3125 93.769531 794.042969 96.082031 798.550781 99.644531 C 803.109375 103.207031 806.476562 107.71875 808.644531 113.171875 C 810.871094 118.574219 811.984375 124.585938 811.984375 131.210938 C 811.984375 141.011719 809.507812 149.445312 804.558594 156.515625 C 799.605469 163.53125 792.011719 167.875 781.777344 169.546875 L 773.183594 170.296875 L 742.222656 170.296875 L 742.222656 212.304688 Z M 791.125 212.304688 L 767.425781 163.367188 L 787.867188 158.855469 L 813.902344 212.304688 Z M 742.222656 151.507812 L 770.929688 151.507812 C 772.042969 151.507812 773.292969 151.449219 774.683594 151.339844 C 776.074219 151.226562 777.355469 151.003906 778.523438 150.671875 C 781.859375 149.835938 784.472656 148.363281 786.367188 146.246094 C 788.3125 144.128906 789.675781 141.734375 790.457031 139.0625 C 791.289062 136.390625 791.707031 133.773438 791.707031 131.210938 C 791.707031 128.652344 791.289062 126.035156 790.457031 123.363281 C 789.675781 120.632812 788.3125 118.210938 786.367188 116.097656 C 784.472656 113.980469 781.859375 112.503906 778.523438 111.671875 C 777.355469 111.335938 776.074219 111.140625 774.683594 111.085938 C 773.292969 110.972656 772.042969 110.917969 770.929688 110.917969 L 742.222656 110.917969 Z M 742.222656 151.507812 " fill-opacity="1" fill-rule="nonzero"/><path fill="#ffffff" d="M 625.175781 212.304688 L 625.175781 92.042969 L 672.824219 92.042969 C 680.945312 92.042969 687.59375 93.6875 692.765625 96.972656 C 697.996094 100.203125 701.863281 104.347656 704.367188 109.414062 C 706.925781 114.480469 708.203125 119.714844 708.203125 125.117188 C 708.203125 131.742188 706.617188 137.363281 703.449219 141.988281 C 700.332031 146.609375 696.078125 149.726562 690.679688 151.339844 L 690.679688 147.164062 C 698.246094 148.890625 703.976562 152.480469 707.867188 157.9375 C 711.820312 163.394531 713.792969 169.601562 713.792969 176.558594 C 713.792969 183.6875 712.429688 189.921875 709.703125 195.269531 C 706.980469 200.613281 702.917969 204.789062 697.523438 207.792969 C 692.183594 210.800781 685.5625 212.304688 677.660156 212.304688 Z M 645.539062 193.347656 L 675.160156 193.347656 C 678.664062 193.347656 681.808594 192.652344 684.589844 191.257812 C 687.371094 189.8125 689.539062 187.808594 691.097656 185.246094 C 692.710938 182.628906 693.515625 179.539062 693.515625 175.976562 C 693.515625 172.746094 692.820312 169.851562 691.429688 167.289062 C 690.039062 164.730469 688.007812 162.699219 685.339844 161.195312 C 682.667969 159.636719 679.472656 158.855469 675.742188 158.855469 L 645.539062 158.855469 Z M 645.539062 140.066406 L 672.570312 140.066406 C 675.464844 140.066406 678.050781 139.507812 680.332031 138.394531 C 682.613281 137.28125 684.421875 135.640625 685.757812 133.46875 C 687.089844 131.296875 687.757812 128.625 687.757812 125.449219 C 687.757812 121.273438 686.425781 117.792969 683.753906 115.011719 C 681.082031 112.226562 677.355469 110.835938 672.570312 110.835938 L 645.539062 110.835938 Z M 645.539062 140.066406 " fill-opacity="1" fill-rule="nonzero"/><path fill="#ffffff" d="M 561.804688 214.8125 C 552.234375 214.8125 543.808594 212.859375 536.519531 208.964844 C 529.289062 205.066406 523.613281 199.582031 519.5 192.511719 C 515.4375 185.441406 513.40625 177.144531 513.40625 167.625 L 513.40625 92.210938 L 533.765625 92.042969 L 533.765625 167.125 C 533.765625 171.632812 534.519531 175.667969 536.019531 179.234375 C 537.578125 182.796875 539.664062 185.832031 542.277344 188.335938 C 544.894531 190.785156 547.898438 192.652344 551.292969 193.933594 C 554.683594 195.210938 558.1875 195.851562 561.804688 195.851562 C 565.53125 195.851562 569.0625 195.210938 572.402344 193.933594 C 575.796875 192.59375 578.800781 190.703125 581.414062 188.253906 C 584.027344 185.746094 586.085938 182.710938 587.589844 179.148438 C 589.089844 175.585938 589.84375 171.578125 589.84375 167.125 L 589.84375 92.042969 L 610.203125 92.042969 L 610.203125 167.625 C 610.203125 177.144531 608.144531 185.441406 604.027344 192.511719 C 599.964844 199.582031 594.292969 205.066406 587.003906 208.964844 C 579.773438 212.859375 571.371094 214.8125 561.804688 214.8125 Z M 561.804688 214.8125 " fill-opacity="1" fill-rule="nonzero"/><path fill="#ffffff" d="M 490.789062 214.8125 L 456.492188 180.652344 L 469.09375 168.042969 L 503.222656 202.199219 Z M 447.566406 214.8125 C 435.550781 214.8125 425.257812 212.191406 416.691406 206.960938 C 408.125 201.671875 401.53125 194.320312 396.914062 184.910156 C 392.351562 175.503906 390.070312 164.589844 390.070312 152.175781 C 390.070312 139.757812 392.351562 128.847656 396.914062 119.4375 C 401.53125 110.027344 408.125 102.707031 416.691406 97.472656 C 425.257812 92.183594 435.550781 89.539062 447.566406 89.539062 C 459.582031 89.539062 469.875 92.183594 478.441406 97.472656 C 487.0625 102.707031 493.65625 110.027344 498.214844 119.4375 C 502.835938 128.847656 505.140625 139.757812 505.140625 152.175781 C 505.140625 164.589844 502.835938 175.503906 498.214844 184.910156 C 493.65625 194.320312 487.0625 201.671875 478.441406 206.960938 C 469.875 212.191406 459.582031 214.8125 447.566406 214.8125 Z M 447.566406 195.851562 C 455.632812 195.910156 462.335938 194.125 467.675781 190.507812 C 473.070312 186.886719 477.105469 181.792969 479.773438 175.226562 C 482.5 168.652344 483.863281 160.972656 483.863281 152.175781 C 483.863281 143.378906 482.5 135.75 479.773438 129.292969 C 477.105469 122.777344 473.070312 117.710938 467.675781 114.09375 C 462.335938 110.472656 455.632812 108.609375 447.566406 108.496094 C 439.5 108.441406 432.796875 110.222656 427.457031 113.84375 C 422.113281 117.460938 418.082031 122.554688 415.355469 129.125 C 412.6875 135.695312 411.351562 143.378906 411.351562 152.175781 C 411.351562 160.972656 412.6875 168.628906 415.355469 175.140625 C 418.027344 181.597656 422.03125 186.640625 427.371094 190.257812 C 432.769531 193.875 439.5 195.742188 447.566406 195.851562 Z M 447.566406 195.851562 " fill-opacity="1" fill-rule="nonzero"/></svg>